<svg width="30" height="30" viewBox="0 0 30 30" fill="none" xmlns="http://www.w3.org/2000/svg">
<path d="M20.7031 9.29688C21.1719 9.76562 21.7708 10 22.5 10C23.2292 10 23.8281 9.76562 24.2969 9.29688C24.7656 8.82812 25 8.22917 25 7.5C25 6.77083 24.7656 6.17188 24.2969 5.70312C23.8281 5.23438 23.2292 5 22.5 5C21.7708 5 21.1719 5.23438 20.7031 5.70312C20.2344 6.17188 20 6.77083 20 7.5C20 8.22917 20.2344 8.82812 20.7031 9.29688ZM20.7031 24.2969C21.1719 24.7656 21.7708 25 22.5 25C23.2292 25 23.8281 24.7656 24.2969 24.2969C24.7656 23.8281 25 23.2292 25 22.5C25 21.7708 24.7656 21.1719 24.2969 20.7031C23.8281 20.2344 23.2292 20 22.5 20C21.7708 20 21.1719 20.2344 20.7031 20.7031C20.2344 21.1719 20 21.7708 20 22.5C20 23.2292 20.2344 23.8281 20.7031 24.2969ZM13.2031 16.7969C13.6719 17.2656 14.2708 17.5 15 17.5C15.7292 17.5 16.3281 17.2656 16.7969 16.7969C17.2656 16.3281 17.5 15.7292 17.5 15C17.5 14.2708 17.2656 13.6719 16.7969 13.2031C16.3281 12.7344 15.7292 12.5 15 12.5C14.2708 12.5 13.6719 12.7344 13.2031 13.2031C12.7344 13.6719 12.5 14.2708 12.5 15C12.5 15.7292 12.7344 16.3281 13.2031 16.7969ZM5.70312 9.29688C6.17188 9.76562 6.77083 10 7.5 10C8.22917 10 8.82812 9.76562 9.29688 9.29688C9.76562 8.82812 10 8.22917 10 7.5C10 6.77083 9.76562 6.17188 9.29688 5.70312C8.82812 5.23438 8.22917 5 7.5 5C6.77083 5 6.17188 5.23438 5.70312 5.70312C5.23438 6.17188 5 6.77083 5 7.5C5 8.22917 5.23438 8.82812 5.70312 9.29688ZM5.70312 24.2969C6.17188 24.7656 6.77083 25 7.5 25C8.22917 25 8.82812 24.7656 9.29688 24.2969C9.76562 23.8281 10 23.2292 10 22.5C10 21.7708 9.76562 21.1719 9.29688 20.7031C8.82812 20.2344 8.22917 20 7.5 20C6.77083 20 6.17188 20.2344 5.70312 20.7031C5.23438 21.1719 5 21.7708 5 22.5C5 23.2292 5.23438 23.8281 5.70312 24.2969ZM26.6406 0C27.526 0 28.3073 0.338542 28.9844 1.01562C29.6615 1.69271 30 2.47396 30 3.35938V26.6406C30 27.526 29.6615 28.3073 28.9844 28.9844C28.3073 29.6615 27.526 30 26.6406 30H3.35938C2.47396 30 1.69271 29.6615 1.01562 28.9844C0.338542 28.3073 0 27.526 0 26.6406V3.35938C0 2.47396 0.338542 1.69271 1.01562 1.01562C1.69271 0.338542 2.47396 0 3.35938 0H26.6406Z" fill="white"/>
</svg>
